<?xml version="1.0" encoding="utf-8"?><svg xml:space="preserve" viewBox="0 0 100 100" y="0" x="0" xmlns="http://www.w3.org/2000/svg" id="圖層_1" version="1.1" width="194px" height="194px" xmlns:xlink="http://www.w3.org/1999/xlink" style="width:100%;height:100%;background-color:rgb(255, 255, 255);animation-play-state:paused" ><g class="ldl-scale" style="transform-origin:50% 50% 0px;transform:rotate(0deg) scale(0.8);animation-play-state:paused" ><path fill="#849b87" d="M26.7 63.7l5.7-9.9 9.9 5.7L32.8 37 8.6 40l9.9 5.7-5.8 10c-.5.9-.5 2.1 0 3l11.2 19.4c.5.9 1.5 1.5 2.6 1.5h21v-16H26.7z" style="fill:rgb(132, 155, 135);animation-play-state:paused" ></path>
<path fill="#f8b26a" d="M87.7 55.4L77.2 37.2l-13.9 8 10.4 18.1H62.3V51.8L47.7 71.3l14.7 19.5V79.3H74c1.1 0 2.1-.6 2.6-1.5l11.2-19.4c.5-.9.5-2.1-.1-3z" style="fill:rgb(248, 178, 106);animation-play-state:paused" ></path>
<path fill="#abbd81" d="M69.5 24.6l-5.8-10c-.5-.9-1.5-1.5-2.6-1.5H38.7c-1.1 0-2.1.6-2.6 1.5L25.6 32.7l13.9 8 10.4-18.1 5.7 9.9-9.9 5.7 24.2 3 9.5-22.4-9.9 5.8z" style="fill:rgb(171, 189, 129);animation-play-state:paused" ></path>
<metadata xmlns:d="https://loading.io/stock/" style="animation-play-state:paused" ><d:name style="animation-play-state:paused" >recycle</d:name>


<d:tags style="animation-play-state:paused" >arrow,refresh,environment,bin,trash,recycle,web application</d:tags>


<d:license style="animation-play-state:paused" >by</d:license>


<d:slug style="animation-play-state:paused" >eyi14q</d:slug></metadata></g><!-- generated by https://loading.io/ --></svg>